<svg id="Calque_1" data-name="Calque 1" xmlns="http://www.w3.org/2000/svg" width="444.56141mm" height="113.50958mm" viewBox="0 0 1260.17407 321.75944">
  <defs>
    <style>
      .cls-1 {
        fill: #00d3c5;
      }

      .cls-2 {
        fill: #fff;
      }
    </style>
  </defs>
  <title>Logo sur fond blanc copieSVG</title>
  <path class="cls-1" d="M70.25174,262.10649a61.29534,61.29534,0,0,0,1.49907,14.28063q1.498,6.22883,8.28435,6.233c.735,0,1.47208-.02907,2.20916-.0789.735-.054,1.47208-.07889,2.20915-.07889a15.89461,15.89461,0,0,1,15.77971,15.7797q0,7.73-5.83849,11.91367a24.02926,24.02926,0,0,1-14.35953,4.18162q-14.36058,0-24.30075-8.59994-9.9412-8.602-13.72834-19.01454a47.0016,47.0016,0,0,1-2.84035-12.30816q-.47339-5.84265-.47339-10.7302V261.9487l.31559-65.01237q0-8.99442-2.05136-14.04393-2.05239-5.05158-10.4146-5.0495a15.1831,15.1831,0,0,1-11.12469-4.655,15.53,15.53,0,0,1-.3156-21.85489,15.67469,15.67469,0,0,1,10.49351-5.0495q6.78319-.31767,9.54672-5.2073,2.75937-4.88962,2.91924-12.62376l.94678-73.21781a69.63186,69.63186,0,0,1,3.62934-22.32827A37.2984,37.2984,0,0,1,53.99864,16.41657,36.402,36.402,0,0,1,77.9838,7.42215a29.1803,29.1803,0,0,1,15.6219,4.18162q6.7832,4.17954,6.78528,12.54486a15.18307,15.18307,0,0,1-4.655,11.12468,15.18976,15.18976,0,0,1-11.12469,4.655,17.14907,17.14907,0,0,1-3.23484-.3156,17.16546,17.16546,0,0,0-3.23484-.31559q-5.36613,0-6.39078,5.0495A65.34823,65.34823,0,0,0,70.56733,55.708l-.94678,73.2178q-.31767,19.56476-9.78342,31.7172a41.95033,41.95033,0,0,1,8.20545,15.7008,71.99365,71.99365,0,0,1,2.52475,19.64572v1.10458Z"/>
  <path class="cls-1" d="M527.77771,252.42583a15.94983,15.94983,0,0,1-14.70212-9.76265l-47.66924-113.2318L417.735,242.66318a15.94527,15.94527,0,0,1-29.39177-12.3746l62.3672-148.14231a15.94519,15.94519,0,0,1,14.69589-9.7585h0a15.94518,15.94518,0,0,1,14.69589,9.7585l62.36513,148.14231a15.95533,15.95533,0,0,1-14.68966,22.13725Z"/>
  <path class="cls-2" d="M115.26874,162.99174a90.81274,90.81274,0,0,1,6.15409-33.29517,89.81708,89.81708,0,0,1,17.35767-28.08786,83.61474,83.61474,0,0,1,26.11541-19.409,74.44728,74.44728,0,0,1,32.42729-7.10087,72.45032,72.45032,0,0,1,31.48052,6.70637,79.02072,79.02072,0,0,1,24.30074,17.67327,75.29329,75.29329,0,0,1,15.22742,23.90624,15.64454,15.64454,0,0,1,1.10458,5.99629,15.89464,15.89464,0,0,1-15.77971,15.7797,14.95065,14.95065,0,0,1-8.67884-2.99815,16.42835,16.42835,0,0,1-5.99628-7.25866q-4.41936-11.36138-15.38522-19.80352-10.969-8.44007-26.27321-8.44214a44.07828,44.07828,0,0,0-25.79981,7.96875,56.565,56.565,0,0,0-18.06776,20.7503,59.11081,59.11081,0,0,0-6.62748,27.61448,60.63413,60.63413,0,0,0,6.78527,28.16676,57.07168,57.07168,0,0,0,18.62005,21.30259,46.00375,46.00375,0,0,0,26.66771,8.12655q14.51628,0,25.08973-7.33756a50.56337,50.56337,0,0,0,15.9375-17.121,15.808,15.808,0,0,1,5.99629-5.91739,15.6489,15.6489,0,0,1,8.04764-2.44586,15.89462,15.89462,0,0,1,15.77971,15.7797,16.07855,16.07855,0,0,1-2.05136,7.73206q-8.99443,16.56868-26.8255,28.719-17.83314,12.14622-41.974,12.15037a76.93255,76.93255,0,0,1-33.21628-7.17977A83.36591,83.36591,0,0,1,139.175,225.32155a92.66781,92.66781,0,0,1-17.59437-28.48236A91.45264,91.45264,0,0,1,115.26874,162.99174Z"/>
  <path class="cls-2" d="M399.46122,95.139q0,12.62583-12.15037,14.04393-4.41936.4734-11.20359-2.91924a30.40084,30.40084,0,0,0-13.72834-3.39264q-13.72834,0-21.776,7.022-8.04765,7.01988-11.51918,18.85674a94.05535,94.05535,0,0,0-3.47154,26.50989v81.42325q0,6.94515-4.18162,11.04579-4.18266,4.09857-11.59808,4.10272-7.2597,0-11.51919-4.10272-4.26051-4.1048-4.26052-11.20358V91.1941q0-7.10087,3.55044-11.677a11.61378,11.61378,0,0,1,9.70452-4.57612q3.62829,0,8.44214,3.07705,4.81178,3.077,6.70637,10.4935l1.578,11.36138q2.04929-4.41624,7.88986-10.25681a59.2521,59.2521,0,0,1,13.88614-10.1779,34.77362,34.77362,0,0,1,16.72648-4.33942q16.0953,0,26.50991,3.70823Q399.46123,82.5132,399.46122,95.139Z"/>
  <path class="cls-2" d="M765.87685,213.01309a14.49993,14.49993,0,0,0-5.20727,1.02594,23.1399,23.1399,0,0,0-4.5762,2.2881,20.44728,20.44728,0,0,1-11.99251,3.62948q-5.3662,0-7.10088-2.91936-1.738-2.92176-1.73588-10.65149v-.31545l.15791-97.6765h32.15073a14.95167,14.95167,0,0,0,10.57245-25.563,14.43231,14.43231,0,0,0-10.57245-4.41847h-31.993V47.01064A15.89477,15.89477,0,0,0,719.8,31.23111a15.11039,15.11039,0,0,0-11.20353,4.65506,15.31026,15.31026,0,0,0-4.5762,11.12447V78.57007H609.65776a104.48139,104.48139,0,0,1,.86785-17.51541q1.02465-6.15342,4.73392-8.6,3.70621-2.4447,11.91365-2.44582l17.67333,2.52505A15.518,15.518,0,0,0,656.05,48.11544a14.53567,14.53567,0,0,0,4.5762-10.88789A15.31855,15.31855,0,0,0,656.05,26.10271a14.933,14.933,0,0,0-11.04581-4.65487l-17.35769-.31563q-25.88077-.47345-37.3978,14.67509-11.52018,15.14892-11.99252,41.81643v2.05114l-23.35414.15773a11.494,11.494,0,0,0-9.07315,4.33923,13.65282,13.65282,0,0,0-3.70835,8.9158A15.52145,15.52145,0,0,0,546.46,104.44925a14.35291,14.35291,0,0,0,10.65132,4.41809l21.1449.15773.31545,127.49987v.15772a13.99734,13.99734,0,0,0,4.655,10.65149,16.429,16.429,0,0,0,22.24934,0,14.00439,14.00439,0,0,0,4.65506-10.65149v-.15772l-.31563-127.18406v-.78935h94.04708l-.15772,98.939v1.42025q0,18.30587,10.73017,30.53349,10.72906,12.22742,30.61256,12.22946a45.468,45.468,0,0,0,16.56871-2.99822,55.56939,55.56939,0,0,0,13.7284-7.57441,15.451,15.451,0,0,0,1.65683-23.51185A15.31116,15.31116,0,0,0,765.87685,213.01309Z"/>
  <path class="cls-2" d="M877.28153,75.73A73.94846,73.94846,0,0,1,915.784,86.1446a80.66976,80.66976,0,0,1,28.16678,28.009,73.963,73.963,0,0,1,10.6513,39.05475,87.42532,87.42532,0,0,1-.47339,8.99443,14.77581,14.77581,0,0,1-5.2862,9.86231,15.62865,15.62865,0,0,1-10.49351,4.02383l-110.30013.15779a57.441,57.441,0,0,0,10.099,21.3026,59.4049,59.4049,0,0,0,18.06776,16.09529,47.48409,47.48409,0,0,0,47.57581-.47339,55.09541,55.09541,0,0,0,16.72649-15.30631,14.77569,14.77569,0,0,1,5.75959-5.0495,15.71521,15.71521,0,0,1,7.33756-2.05136,15.05982,15.05982,0,0,1,11.12469,4.73391,15.44655,15.44655,0,0,1,4.655,11.20358,15.00006,15.00006,0,0,1-2.84034,8.99443Q936.769,230.05339,919.65,240.549q-17.12305,10.49558-39.686,10.4935a80.0939,80.0939,0,0,1-33.68967-7.10087,85.1173,85.1173,0,0,1-27.06219-19.409,90.61183,90.61183,0,0,1-24.30074-62.172,86.18086,86.18086,0,0,1,6.31188-32.74288,90.23153,90.23153,0,0,1,17.59437-27.69337A84.29321,84.29321,0,0,1,845.09094,82.752,74.958,74.958,0,0,1,877.28153,75.73Zm44.81437,68.79949a45.84237,45.84237,0,0,0-15.46411-26.3521,43.18888,43.18888,0,0,0-29.35026-10.888A45.50567,45.50567,0,0,0,846.9056,118.493q-13.17708,11.20568-17.75216,26.19431Z"/>
  <path class="cls-2" d="M1058.27475,75.25661a82.73188,82.73188,0,0,1,33.84746,6.94307,86.214,86.214,0,0,1,27.53559,19.25123,91.6998,91.6998,0,0,1,18.54115,28.24566,86.59026,86.59026,0,0,1,6.70638,33.92635,84.37986,84.37986,0,0,1-6.78528,33.53187,89.38032,89.38032,0,0,1-46.31343,46.9446,82.03173,82.03173,0,0,1-33.53187,6.94307,83.2442,83.2442,0,0,1-33.37408-6.78527,87.42087,87.42087,0,0,1-27.61448-18.77784,88.479,88.479,0,0,1-18.699-27.85117,88.40579,88.40579,0,0,1,0-67.93161,91.0852,91.0852,0,0,1,18.699-28.16676,89.08358,89.08358,0,0,1,27.53558-19.25124A80.66822,80.66822,0,0,1,1058.27475,75.25661ZM1003.677,163.93852a53.26647,53.26647,0,0,0,7.49536,27.85117,56.68433,56.68433,0,0,0,19.96132,19.96132,52.39695,52.39695,0,0,0,27.29889,7.41646,51.33675,51.33675,0,0,0,27.53559-7.65316,57.36085,57.36085,0,0,0,19.72463-20.27691,53.97741,53.97741,0,0,0,7.33756-27.61448,57.073,57.073,0,0,0-26.90439-48.75927,51.53116,51.53116,0,0,0-27.85118-7.73205,51.01241,51.01241,0,0,0-27.93008,7.81095,57.37188,57.37188,0,0,0-26.6677,48.996Z"/>
  <path class="cls-1" d="M1189.92233,59.653a61.29483,61.29483,0,0,0-1.49908-14.28063q-1.498-6.22883-8.28434-6.233c-.735,0-1.47208.02907-2.20916.0789-.735.054-1.47208.0789-2.20916.0789a15.17372,15.17372,0,0,1-11.12469-4.655,15.18309,15.18309,0,0,1-4.655-11.12469q0-7.73,5.83849-11.91367a24.02919,24.02919,0,0,1,14.35953-4.18162q14.36057,0,24.30074,8.59993,9.94122,8.602,13.72835,19.01454a47.00116,47.00116,0,0,1,2.84034,12.30816q.4734,5.83642.4734,10.7302v1.73577l-.3156,65.01236q0,8.99442,2.05136,14.04393,2.0524,5.05158,10.41461,5.0495a15.68108,15.68108,0,0,1,11.44028,26.5099,15.67463,15.67463,0,0,1-10.4935,5.0495q-6.7832.31767-9.54672,5.2073-2.75937,4.88964-2.91925,12.62376l-.94678,73.21781a69.651,69.651,0,0,1-3.62933,22.32827,37.29834,37.29834,0,0,1-11.36139,16.48979,36.40188,36.40188,0,0,1-23.98515,8.99443,29.18042,29.18042,0,0,1-15.62191-4.18162q-6.7832-4.18578-6.78527-12.54486a15.89461,15.89461,0,0,1,15.7797-15.7797,17.14888,17.14888,0,0,1,3.23484.31559,17.16557,17.16557,0,0,0,3.23484.3156q5.36614,0,6.39078-5.04951a65.34627,65.34627,0,0,0,1.18348-11.36138l.94678-73.21781q.31767-19.56474,9.78342-31.71719a41.95055,41.95055,0,0,1-8.20545-15.7008,72.01564,72.01564,0,0,1-2.52475-19.64573v-1.10458Z"/>
</svg>
